<svg id="Layer_1" data-name="Layer 1" xmlns="http://www.w3.org/2000/svg" viewBox="0 0 28.9 38.75"><defs><style>.cls-1{fill:#fff;}</style></defs><title>keyboard_voice_FILL0_wght500_GRAD0_opsz48</title><path class="cls-1" d="M24,27.25a5.07,5.07,0,0,1-3.85-1.65,5.64,5.64,0,0,1-1.55-4V9.15a5.15,5.15,0,0,1,1.57-3.8,5.51,5.51,0,0,1,7.66,0,5.12,5.12,0,0,1,1.57,3.8V21.6a5.64,5.64,0,0,1-1.55,4A5.07,5.07,0,0,1,24,27.25Zm0-11.7Zm-1.65,27V35.7a13.86,13.86,0,0,1-9.12-4.57A13.68,13.68,0,0,1,9.55,21.6H12.8a10.37,10.37,0,0,0,3.28,7.8A11,11,0,0,0,24,32.55a11,11,0,0,0,7.9-3.15,10.35,10.35,0,0,0,3.3-7.8h3.25a13.67,13.67,0,0,1-3.67,9.53,13.88,13.88,0,0,1-9.13,4.57v6.85ZM24,23.85a1.82,1.82,0,0,0,1.42-.65A2.3,2.3,0,0,0,26,21.6V9.15a1.83,1.83,0,0,0-.58-1.4,2.11,2.11,0,0,0-2.84,0A1.83,1.83,0,0,0,22,9.15V21.6a2.3,2.3,0,0,0,.58,1.6A1.82,1.82,0,0,0,24,23.85Z" transform="translate(-9.55 -3.8)"/></svg>